<svg version="1" xmlns="http://www.w3.org/2000/svg" width="3369.333" height="3369.333" viewBox="0 0 2527.000000 2527.000000"><path d="M2497.9 273c-114.7 26.2-212.8 53.5-313.4 87.3-389.9 131.2-695.7 329.2-898.2 581.7-80.5 100.4-148.5 221.5-171.7 306.1l-1.6 5.6-10.6.7c-18.2 1.2-47.8 7.2-105.4 21.7-95.8 23.9-253.3 68.6-411 116.6l-48.5 14.8-4.8 9c-10.4 19.3-29.6 44.5-68.1 89.5-39.4 46-66 74.5-119.5 128.1-64.6 64.5-119.9 115.4-184.8 169.8l-22.2 18.6-.1 11.9v11.8l5.3-4.8c2.9-2.7 11.4-10.5 18.8-17.4 113.8-105.5 242-189.6 363.4-238.3 121.3-48.6 240.3-64.2 352.2-46.2 108.4 17.5 210.3 65.9 305.3 145.2 42.5 35.5 91.4 85.1 126.5 128.6l3 3.7 236-1c129.8-.5 403.1-1 607.3-1H2527v-774c0-736.5-.1-774-1.7-773.9-1 0-13.3 2.7-27.4 5.9zM2059 906.8v355.7l-373.2 47.3c-205.3 26.1-374 47.6-374.9 47.8-3.5 1-3.1-35.9.7-65.6 8.6-68.1 34.7-146.4 72-216.3C1491.1 874 1695.1 705.8 1982 582.2c24.2-10.4 74.8-31.1 76.3-31.2.4 0 .7 160.1.7 355.8zm-35.5 431c15.6 7.2 22.5 25.5 15.2 40.4-3 6.1-7.4 10.5-14 14l-4.2 2.3-68.1.3c-66.2.2-68.3.2-73.5-1.8-7.7-2.8-12.3-7.1-16-14.5-2.7-5.5-3.2-7.6-3.1-13.4.1-14.7 10-26.6 24.3-29 3-.5 34.1-.8 69.9-.8l64.5.2 5 2.3zM441 1437.6c-139.3 44.6-234.4 77.9-265.8 93.1-8.5 4.2-9.5 4.9-11.7 9.4-9 17.6-15.6 61.1-20 131.4-1.9 30.9-4 89.3-3.2 90.1.7.7 15.5-11.8 50.2-42.2 104-91.1 194.9-184 262.6-268.4 15.4-19.2 17.4-22 15.7-21.9-.7 0-13.2 3.9-27.8 8.5z"/><path d="M756 1581c-150.7 6.7-314.4 75.9-475 200.8-63.9 49.7-135.1 115.9-181.6 168.8l-7.1 8-.6 47.5c-.4 26.1-1.2 64.6-1.8 85.7-.9 29.2-.9 41.3 0 51 2.5 26.4 8.7 46.4 19.7 63.4 15.4 24 37.8 39.5 70.4 48.8l9.5 2.8 59.5-1.5c32.7-.8 59.6-1.6 59.7-1.7.2-.2 1-7.2 1.8-15.7 28.1-280.6 148.6-448 348.5-484.3 32.6-5.9 63.9-7.7 114-6.5 34.6.8 43 1.5 63.5 5 57.4 9.7 110 34.6 158 74.8 5 4.1 15.5 14.1 23.5 22.1 46.3 46.2 84.4 105.6 116.8 181.7 26.1 61.4 50 144.5 61.2 212.8 1.1 7.1 2.3 14.2 2.6 15.8l.6 2.7H2527v-398.8l-93.7-.7c-94.5-.8-709.6-.1-988 1.2l-150.3.6v-8.1c0-4.5-.3-8.2-.6-8.2s-3.3 2.2-6.7 5c-3.4 2.7-6.4 4.6-6.8 4.2-.4-.4-6.4-7.7-13.5-16.2-38.8-46.8-86.2-94.2-127.9-127.6-94-75.5-194.4-119.1-301.5-130.9-13.2-1.4-53.5-3.6-61.5-3.3-2.2 0-11.4.4-20.5.8z"/><path d="M731 1831.7c-26.1 2.5-42.5 5.5-62.9 11.3-115.9 33.4-202.9 130.5-223.1 249-3.1 18.3-4.1 32.1-4.1 53.5 0 83.5 32.1 161.3 91.1 220.6 61.7 62 146.2 95.7 232.5 92.6 104.3-3.8 196.3-55.5 253.8-142.7 10.6-16.2 25.8-46.6 32.2-64.5 31.8-88.9 22.2-187.9-26-268-52.1-86.5-140.9-142.1-242-151.5-10.1-.9-43.2-1.1-51.5-.3zm41 50.3c54.6 3.9 102.1 22 146 55.8 4.7 3.6 15.3 13.3 23.5 21.6 42.3 42.4 67 92.8 75 153.1 1.9 14.4 2.2 45.5.5 60.5-9.4 85.9-59.4 160.7-135.5 202.9-29.3 16.3-66.4 27.7-100.9 31.2-15 1.5-50.3.6-64.6-1.5-26.9-4.2-54-12.8-78.9-25.2-25.1-12.5-45.5-27-66-46.8-42.2-41.1-68.2-91.9-77.2-150.7-1.8-11.5-2.2-19-2.3-36.9 0-23.6.9-33.5 4.9-53.5 23.3-115.8 122.2-202.5 239.9-210.5 16.6-1.1 19.8-1.1 35.6 0z"/><path d="M731.5 1963c-20.5 3.2-38.2 8.5-55.2 16.5-55.4 26.2-93.7 78.1-102.8 139.1-2 13.8-2 39.5 0 52.9 7.8 51.4 36.3 96.5 79 125 29.8 19.9 60 29.8 95.5 31.2 29.6 1.2 58.1-4.6 84.5-17.1 22-10.5 38.3-22.2 55.1-39.9 34.2-35.8 51.7-81.8 50.1-131.7-1.1-32.4-9.4-61.2-25.2-87.5-27-44.7-70-75.3-120.9-86.1-10.2-2.2-15.3-2.6-33.1-2.9-11.5-.2-23.7 0-27 .5z"/></svg>